<?xml version='1.0' encoding='utf-8'?>
<svg height="180.90mm" viewBox="0.0 0.0 424.51 180.90" width="424.51mm" xmlns="http://www.w3.org/2000/svg" xmlns:cc="http://creativecommons.org/ns#" xmlns:dc="http://purl.org/dc/elements/1.1/" xmlns:inkscape="http://www.inkscape.org/namespaces/inkscape" xmlns:rdf="http://www.w3.org/1999/02/22-rdf-syntax-ns#" xmlns:svg="http://www.w3.org/2000/svg" xmlns:xlink="http://www.w3.org/1999/xlink">
<!--
RegularBox - Box with regular polygon as base


For short side walls that don't fit a connecting finger reduce *surroundingspaces* and *finger* in the Finger Joint Settings.

The lids needs to be glued. For the bayonet lid all outside rings attach to the bottom, all inside rings to the top.



Created with Boxes.py (https://boxes.hackerspace-bamberg.de/)
Creation date: 2026-08-05 04:20:44
Command line (remove spaces between dashes): boxes RegularBox - -h=25 - -outside=0 - -radius_bottom=59.693 - -radius_top=59.693 - -n=8 - -top=closed - -spacing=0.5
Url: https://boxes.hackerspace-bamberg.de/RegularBox?FingerJoint_style=rectangular&FingerJoint_surroundingspaces=1.0&FingerJoint_bottom_lip=0.0&FingerJoint_edge_width=1.0&FingerJoint_extra_length=0.0&FingerJoint_finger=2.0&FingerJoint_play=0.0&FingerJoint_space=2.0&FingerJoint_width=1.0&h=25&outside=0&radius_bottom=59.693&radius_top=59.693&n=8&top=closed&alignment_pins=1.0&bottom=closed&thickness=3.0&burn=0.1&format=svg&labels=0&labels=1&reference=100.0&tabs=0.0&qr_code=0&inner_corners=loop&spacing=0.5&debug=0&language=en&render=2
Url short: https://boxes.hackerspace-bamberg.de/RegularBox?h=25&outside=0&radius_bottom=59.693&radius_top=59.693&n=8&top=closed&spacing=0.5
SettingsUrl: https://boxes.hackerspace-bamberg.de/RegularBox?FingerJoint_style=rectangular&FingerJoint_surroundingspaces=1.0&FingerJoint_bottom_lip=0.0&FingerJoint_edge_width=1.0&FingerJoint_extra_length=0.0&FingerJoint_finger=2.0&FingerJoint_play=0.0&FingerJoint_space=2.0&FingerJoint_width=1.0&h=25&outside=0&radius_bottom=59.693&radius_top=59.693&n=8&top=closed&alignment_pins=1.0&bottom=closed&thickness=3.0&burn=0.1&format=svg&labels=0&labels=1&reference=100.0&tabs=0.0&qr_code=0&inner_corners=loop&spacing=0.5&debug=0&language=en&render=2
SettingsUrl short: https://boxes.hackerspace-bamberg.de/RegularBox?h=25&outside=0&radius_bottom=59.693&radius_top=59.693&n=8&top=closed&spacing=0.5
-->
<title>RegularBox</title>
<metadata>
<rdf:RDF><cc:Work>
<dc:title>Box - RegularBox</dc:title>
<dc:date>2026-08-05 04:20:44</dc:date>
<dc:source>https://boxes.hackerspace-bamberg.de/RegularBox?FingerJoint_style=rectangular&amp;FingerJoint_surroundingspaces=1.0&amp;FingerJoint_bottom_lip=0.0&amp;FingerJoint_edge_width=1.0&amp;FingerJoint_extra_length=0.0&amp;FingerJoint_finger=2.0&amp;FingerJoint_play=0.0&amp;FingerJoint_space=2.0&amp;FingerJoint_width=1.0&amp;h=25&amp;outside=0&amp;radius_bottom=59.693&amp;radius_top=59.693&amp;n=8&amp;top=closed&amp;alignment_pins=1.0&amp;bottom=closed&amp;thickness=3.0&amp;burn=0.1&amp;format=svg&amp;labels=0&amp;labels=1&amp;reference=100.0&amp;tabs=0.0&amp;qr_code=0&amp;inner_corners=loop&amp;spacing=0.5&amp;debug=0&amp;language=en&amp;render=2</dc:source>
<dc:source>https://boxes.hackerspace-bamberg.de/RegularBox?h=25&amp;outside=0&amp;radius_bottom=59.693&amp;radius_top=59.693&amp;n=8&amp;top=closed&amp;spacing=0.5</dc:source>
<dc:description>Box with regular polygon as base

For short side walls that don't fit a connecting finger reduce *surroundingspaces* and *finger* in the Finger Joint Settings.

The lids needs to be glued. For the bayonet lid all outside rings attach to the bottom, all inside rings to the top.


Created with Boxes.py (https://boxes.hackerspace-bamberg.de/)
Command line: boxes RegularBox --FingerJoint_style=rectangular --FingerJoint_surroundingspaces=1.0 --FingerJoint_bottom_lip=0.0 --FingerJoint_edge_width=1.0 --FingerJoint_extra_length=0.0 --FingerJoint_finger=2.0 --FingerJoint_play=0.0 --FingerJoint_space=2.0 --FingerJoint_width=1.0 --h=25 --outside=0 --radius_bottom=59.693 --radius_top=59.693 --n=8 --top=closed --alignment_pins=1.0 --bottom=closed --thickness=3.0 --burn=0.1 --format=svg --labels=0 --labels=1 --reference=100.0 --tabs=0.0 --qr_code=0 --inner_corners=loop --spacing=0.5 --debug=0
Command line short: boxes RegularBox --h=25 --outside=0 --radius_bottom=59.693 --radius_top=59.693 --n=8 --top=closed --spacing=0.5
Url: https://boxes.hackerspace-bamberg.de/RegularBox?FingerJoint_style=rectangular&amp;FingerJoint_surroundingspaces=1.0&amp;FingerJoint_bottom_lip=0.0&amp;FingerJoint_edge_width=1.0&amp;FingerJoint_extra_length=0.0&amp;FingerJoint_finger=2.0&amp;FingerJoint_play=0.0&amp;FingerJoint_space=2.0&amp;FingerJoint_width=1.0&amp;h=25&amp;outside=0&amp;radius_bottom=59.693&amp;radius_top=59.693&amp;n=8&amp;top=closed&amp;alignment_pins=1.0&amp;bottom=closed&amp;thickness=3.0&amp;burn=0.1&amp;format=svg&amp;labels=0&amp;labels=1&amp;reference=100.0&amp;tabs=0.0&amp;qr_code=0&amp;inner_corners=loop&amp;spacing=0.5&amp;debug=0&amp;language=en&amp;render=2
Url short: https://boxes.hackerspace-bamberg.de/RegularBox?h=25&amp;outside=0&amp;radius_bottom=59.693&amp;radius_top=59.693&amp;n=8&amp;top=closed&amp;spacing=0.5
SettingsUrl: https://boxes.hackerspace-bamberg.de/RegularBox?FingerJoint_style=rectangular&amp;FingerJoint_surroundingspaces=1.0&amp;FingerJoint_bottom_lip=0.0&amp;FingerJoint_edge_width=1.0&amp;FingerJoint_extra_length=0.0&amp;FingerJoint_finger=2.0&amp;FingerJoint_play=0.0&amp;FingerJoint_space=2.0&amp;FingerJoint_width=1.0&amp;h=25&amp;outside=0&amp;radius_bottom=59.693&amp;radius_top=59.693&amp;n=8&amp;top=closed&amp;alignment_pins=1.0&amp;bottom=closed&amp;thickness=3.0&amp;burn=0.1&amp;format=svg&amp;labels=0&amp;labels=1&amp;reference=100.0&amp;tabs=0.0&amp;qr_code=0&amp;inner_corners=loop&amp;spacing=0.5&amp;debug=0&amp;language=en&amp;render=2
SettingsUrl short: https://boxes.hackerspace-bamberg.de/RegularBox?h=25&amp;outside=0&amp;radius_bottom=59.693&amp;radius_top=59.693&amp;n=8&amp;top=closed&amp;spacing=0.5
</dc:description>
</cc:Work></rdf:RDF></metadata>
<g id="p-0" style="fill:none;stroke-linecap:round;stroke-linejoin:round;">
  <path d="M 10.100 170.898 H 110.100 V 160.898 H 10.100 V 170.898 Z" stroke="rgb(0,0,0)" stroke-width="0.20" />
  <text dominant-baseline="hanging" font-size="6px" style="font-family: sans-serif ; font-weight: normal; font-style: normal; fill: rgb(255,0,0)" text-anchor="middle" transform="matrix( 1.000 0.000 0.000 1.000 60.100 162.898 )">100.0mm, burn:0.10mm</text>
</g>
<g id="p-1" style="fill:none;stroke-linecap:round;stroke-linejoin:round;">
  <path d="M 45.406 159.198 H 53.249 C 53.304 159.198 53.349 159.154 53.349 159.098 V 156.198 C 53.349 156.098 53.249 156.198 53.349 156.198 H 59.149 C 59.249 156.198 59.149 156.098 59.149 156.198 V 159.098 C 59.149 159.154 59.194 159.198 59.249 159.198 H 65.249 C 65.304 159.198 65.349 159.154 65.349 159.098 V 156.198 C 65.349 156.098 65.249 156.198 65.349 156.198 H 71.149 C 71.249 156.198 71.149 156.098 71.149 156.198 V 159.098 C 71.149 159.154 71.194 159.198 71.249 159.198 H 77.249 C 77.304 159.198 77.349 159.154 77.349 159.098 V 156.198 C 77.349 156.098 77.249 156.198 77.349 156.198 H 83.149 C 83.249 156.198 83.149 156.098 83.149 156.198 V 159.098 C 83.149 159.154 83.194 159.198 83.249 159.198 H 91.093 H 92.335 C 92.362 159.198 92.387 159.188 92.406 159.169 L 93.285 158.290 L 98.831 152.744 C 98.870 152.705 98.870 152.642 98.831 152.603 L 96.780 150.552 C 96.710 150.481 96.710 150.623 96.780 150.552 L 100.882 146.451 C 100.952 146.380 100.811 146.380 100.882 146.451 L 102.932 148.501 C 102.971 148.541 103.034 148.541 103.074 148.501 L 107.316 144.259 C 107.355 144.220 107.355 144.156 107.316 144.117 L 105.266 142.067 C 105.195 141.996 105.195 142.138 105.266 142.067 L 109.367 137.966 C 109.438 137.895 109.296 137.895 109.367 137.966 L 111.417 140.016 C 111.456 140.055 111.520 140.055 111.559 140.016 L 115.801 135.774 C 115.841 135.734 115.841 135.671 115.801 135.632 L 113.751 133.582 C 113.680 133.511 113.680 133.652 113.751 133.582 L 117.852 129.480 C 117.923 129.410 117.781 129.410 117.852 129.480 L 119.903 131.531 C 119.942 131.570 120.005 131.570 120.044 131.531 L 125.590 125.985 L 126.469 125.106 C 126.488 125.087 126.498 125.062 126.498 125.035 V 123.793 V 115.949 C 126.498 115.894 126.454 115.849 126.398 115.849 H 123.498 C 123.398 115.849 123.498 115.949 123.498 115.849 V 110.049 C 123.498 109.949 123.398 110.049 123.498 110.049 H 126.398 C 126.454 110.049 126.498 110.004 126.498 109.949 V 103.949 C 126.498 103.894 126.454 103.849 126.398 103.849 H 123.498 C 123.398 103.849 123.498 103.949 123.498 103.849 V 98.049 C 123.498 97.949 123.398 98.049 123.498 98.049 H 126.398 C 126.454 98.049 126.498 98.004 126.498 97.949 V 91.949 C 126.498 91.894 126.454 91.849 126.398 91.849 H 123.498 C 123.398 91.849 123.498 91.949 123.498 91.849 V 86.049 C 123.498 85.949 123.398 86.049 123.498 86.049 H 126.398 C 126.454 86.049 126.498 86.004 126.498 85.949 V 78.106 V 76.863 C 126.498 76.836 126.488 76.811 126.469 76.792 L 125.590 75.914 L 120.044 70.367 C 120.005 70.328 119.942 70.328 119.903 70.367 L 117.852 72.418 C 117.781 72.489 117.923 72.489 117.852 72.418 L 113.751 68.317 C 113.680 68.246 113.680 68.387 113.751 68.317 L 115.801 66.266 C 115.841 66.227 115.841 66.164 115.801 66.125 L 111.559 61.882 C 111.520 61.843 111.456 61.843 111.417 61.882 L 109.367 63.933 C 109.296 64.003 109.438 64.003 109.367 63.933 L 105.266 59.831 C 105.195 59.761 105.195 59.902 105.266 59.831 L 107.316 57.781 C 107.355 57.742 107.355 57.679 107.316 57.639 L 103.074 53.397 C 103.034 53.358 102.971 53.358 102.932 53.397 L 100.882 55.447 C 100.811 55.518 100.952 55.518 100.882 55.447 L 96.780 51.346 C 96.710 51.275 96.710 51.417 96.780 51.346 L 98.831 49.296 C 98.870 49.257 98.870 49.193 98.831 49.154 L 93.285 43.608 L 92.406 42.729 C 92.387 42.711 92.362 42.700 92.335 42.700 H 91.093 H 83.249 C 83.194 42.700 83.149 42.745 83.149 42.800 V 45.700 C 83.149 45.800 83.249 45.700 83.149 45.700 H 77.349 C 77.249 45.700 77.349 45.800 77.349 45.700 V 42.800 C 77.349 42.745 77.304 42.700 77.249 42.700 H 71.249 C 71.194 42.700 71.149 42.745 71.149 42.800 V 45.700 C 71.149 45.800 71.249 45.700 71.149 45.700 H 65.349 C 65.249 45.700 65.349 45.800 65.349 45.700 V 42.800 C 65.349 42.745 65.304 42.700 65.249 42.700 H 59.249 C 59.194 42.700 59.149 42.745 59.149 42.800 V 45.700 C 59.149 45.800 59.249 45.700 59.149 45.700 H 53.349 C 53.249 45.700 53.349 45.800 53.349 45.700 V 42.800 C 53.349 42.745 53.304 42.700 53.249 42.700 H 45.406 H 44.163 C 44.136 42.700 44.111 42.711 44.092 42.729 L 43.214 43.608 L 37.667 49.154 C 37.628 49.193 37.628 49.257 37.667 49.296 L 39.718 51.346 C 39.789 51.417 39.789 51.275 39.718 51.346 L 35.617 55.447 C 35.546 55.518 35.687 55.518 35.617 55.447 L 33.566 53.397 C 33.527 53.358 33.464 53.358 33.425 53.397 L 29.182 57.639 C 29.143 57.679 29.143 57.742 29.182 57.781 L 31.233 59.831 C 31.303 59.902 31.303 59.761 31.233 59.831 L 27.131 63.933 C 27.061 64.003 27.202 64.003 27.131 63.933 L 25.081 61.882 C 25.042 61.843 24.979 61.843 24.939 61.882 L 20.697 66.125 C 20.658 66.164 20.658 66.227 20.697 66.266 L 22.747 68.317 C 22.818 68.387 22.818 68.246 22.747 68.317 L 18.646 72.418 C 18.575 72.489 18.717 72.489 18.646 72.418 L 16.596 70.367 C 16.557 70.328 16.493 70.328 16.454 70.367 L 10.908 75.914 L 10.029 76.792 C 10.011 76.811 10.000 76.836 10.000 76.863 V 78.106 V 85.949 C 10.000 86.004 10.045 86.049 10.100 86.049 H 13.000 C 13.100 86.049 13.000 85.949 13.000 86.049 V 91.849 C 13.000 91.949 13.100 91.849 13.000 91.849 H 10.100 C 10.045 91.849 10.000 91.894 10.000 91.949 V 97.949 C 10.000 98.004 10.045 98.049 10.100 98.049 H 13.000 C 13.100 98.049 13.000 97.949 13.000 98.049 V 103.849 C 13.000 103.949 13.100 103.849 13.000 103.849 H 10.100 C 10.045 103.849 10.000 103.894 10.000 103.949 V 109.949 C 10.000 110.004 10.045 110.049 10.100 110.049 H 13.000 C 13.100 110.049 13.000 109.949 13.000 110.049 V 115.849 C 13.000 115.949 13.100 115.849 13.000 115.849 H 10.100 C 10.045 115.849 10.000 115.894 10.000 115.949 V 123.793 V 125.035 C 10.000 125.062 10.011 125.087 10.029 125.106 L 10.908 125.985 L 16.454 131.531 C 16.493 131.570 16.557 131.570 16.596 131.531 L 18.646 129.480 C 18.717 129.410 18.575 129.410 18.646 129.480 L 22.747 133.582 C 22.818 133.652 22.818 133.511 22.747 133.582 L 20.697 135.632 C 20.658 135.671 20.658 135.734 20.697 135.774 L 24.939 140.016 C 24.979 140.055 25.042 140.055 25.081 140.016 L 27.131 137.966 C 27.202 137.895 27.061 137.895 27.131 137.966 L 31.233 142.067 C 31.303 142.138 31.303 141.996 31.233 142.067 L 29.182 144.117 C 29.143 144.156 29.143 144.220 29.182 144.259 L 33.425 148.501 C 33.464 148.541 33.527 148.541 33.566 148.501 L 35.617 146.451 C 35.687 146.380 35.546 146.380 35.617 146.451 L 39.718 150.552 C 39.789 150.623 39.789 150.481 39.718 150.552 L 37.667 152.603 C 37.628 152.642 37.628 152.705 37.667 152.744 L 43.214 158.290 L 44.092 159.169 C 44.111 159.188 44.136 159.198 44.163 159.198 H 45.406 Z" stroke="rgb(0,0,0)" stroke-width="0.20" />
</g>
<g id="p-2" style="fill:none;stroke-linecap:round;stroke-linejoin:round;">
  <path d="M 163.404 159.198 H 171.247 C 171.303 159.198 171.347 159.154 171.347 159.098 V 156.198 C 171.347 156.098 171.247 156.198 171.347 156.198 H 177.147 C 177.247 156.198 177.147 156.098 177.147 156.198 V 159.098 C 177.147 159.154 177.192 159.198 177.247 159.198 H 183.247 C 183.303 159.198 183.347 159.154 183.347 159.098 V 156.198 C 183.347 156.098 183.247 156.198 183.347 156.198 H 189.147 C 189.247 156.198 189.147 156.098 189.147 156.198 V 159.098 C 189.147 159.154 189.192 159.198 189.247 159.198 H 195.247 C 195.303 159.198 195.347 159.154 195.347 159.098 V 156.198 C 195.347 156.098 195.247 156.198 195.347 156.198 H 201.147 C 201.247 156.198 201.147 156.098 201.147 156.198 V 159.098 C 201.147 159.154 201.192 159.198 201.247 159.198 H 209.091 H 210.334 C 210.360 159.198 210.386 159.188 210.404 159.169 L 211.283 158.290 L 216.829 152.744 C 216.868 152.705 216.868 152.642 216.829 152.603 L 214.779 150.552 C 214.708 150.481 214.708 150.623 214.779 150.552 L 218.880 146.451 C 218.951 146.380 218.809 146.380 218.880 146.451 L 220.930 148.501 C 220.969 148.541 221.033 148.541 221.072 148.501 L 225.314 144.259 C 225.354 144.220 225.354 144.156 225.314 144.117 L 223.264 142.067 C 223.193 141.996 223.193 142.138 223.264 142.067 L 227.365 137.966 C 227.436 137.895 227.294 137.895 227.365 137.966 L 229.416 140.016 C 229.455 140.055 229.518 140.055 229.557 140.016 L 233.800 135.774 C 233.839 135.734 233.839 135.671 233.800 135.632 L 231.749 133.582 C 231.678 133.511 231.678 133.652 231.749 133.582 L 235.850 129.480 C 235.921 129.410 235.780 129.410 235.850 129.480 L 237.901 131.531 C 237.940 131.570 238.003 131.570 238.042 131.531 L 243.589 125.985 L 244.467 125.106 C 244.486 125.087 244.497 125.062 244.497 125.035 V 123.793 V 115.949 C 244.497 115.894 244.452 115.849 244.397 115.849 H 241.497 C 241.397 115.849 241.497 115.949 241.497 115.849 V 110.049 C 241.497 109.949 241.397 110.049 241.497 110.049 H 244.397 C 244.452 110.049 244.497 110.004 244.497 109.949 V 103.949 C 244.497 103.894 244.452 103.849 244.397 103.849 H 241.497 C 241.397 103.849 241.497 103.949 241.497 103.849 V 98.049 C 241.497 97.949 241.397 98.049 241.497 98.049 H 244.397 C 244.452 98.049 244.497 98.004 244.497 97.949 V 91.949 C 244.497 91.894 244.452 91.849 244.397 91.849 H 241.497 C 241.397 91.849 241.497 91.949 241.497 91.849 V 86.049 C 241.497 85.949 241.397 86.049 241.497 86.049 H 244.397 C 244.452 86.049 244.497 86.004 244.497 85.949 V 78.106 V 76.863 C 244.497 76.836 244.486 76.811 244.467 76.792 L 243.589 75.914 L 238.042 70.367 C 238.003 70.328 237.940 70.328 237.901 70.367 L 235.850 72.418 C 235.780 72.489 235.921 72.489 235.850 72.418 L 231.749 68.317 C 231.678 68.246 231.678 68.387 231.749 68.317 L 233.800 66.266 C 233.839 66.227 233.839 66.164 233.800 66.125 L 229.557 61.882 C 229.518 61.843 229.455 61.843 229.416 61.882 L 227.365 63.933 C 227.294 64.003 227.436 64.003 227.365 63.933 L 223.264 59.831 C 223.193 59.761 223.193 59.902 223.264 59.831 L 225.314 57.781 C 225.354 57.742 225.354 57.679 225.314 57.639 L 221.072 53.397 C 221.033 53.358 220.969 53.358 220.930 53.397 L 218.880 55.447 C 218.809 55.518 218.951 55.518 218.880 55.447 L 214.779 51.346 C 214.708 51.275 214.708 51.417 214.779 51.346 L 216.829 49.296 C 216.868 49.257 216.868 49.193 216.829 49.154 L 211.283 43.608 L 210.404 42.729 C 210.386 42.711 210.360 42.700 210.334 42.700 H 209.091 H 201.247 C 201.192 42.700 201.147 42.745 201.147 42.800 V 45.700 C 201.147 45.800 201.247 45.700 201.147 45.700 H 195.347 C 195.247 45.700 195.347 45.800 195.347 45.700 V 42.800 C 195.347 42.745 195.303 42.700 195.247 42.700 H 189.247 C 189.192 42.700 189.147 42.745 189.147 42.800 V 45.700 C 189.147 45.800 189.247 45.700 189.147 45.700 H 183.347 C 183.247 45.700 183.347 45.800 183.347 45.700 V 42.800 C 183.347 42.745 183.303 42.700 183.247 42.700 H 177.247 C 177.192 42.700 177.147 42.745 177.147 42.800 V 45.700 C 177.147 45.800 177.247 45.700 177.147 45.700 H 171.347 C 171.247 45.700 171.347 45.800 171.347 45.700 V 42.800 C 171.347 42.745 171.303 42.700 171.247 42.700 H 163.404 H 162.161 C 162.135 42.700 162.109 42.711 162.091 42.729 L 161.212 43.608 L 155.666 49.154 C 155.627 49.193 155.627 49.257 155.666 49.296 L 157.716 51.346 C 157.787 51.417 157.787 51.275 157.716 51.346 L 153.615 55.447 C 153.544 55.518 153.686 55.518 153.615 55.447 L 151.564 53.397 C 151.525 53.358 151.462 53.358 151.423 53.397 L 147.180 57.639 C 147.141 57.679 147.141 57.742 147.180 57.781 L 149.231 59.831 C 149.302 59.902 149.302 59.761 149.231 59.831 L 145.130 63.933 C 145.059 64.003 145.200 64.003 145.130 63.933 L 143.079 61.882 C 143.040 61.843 142.977 61.843 142.938 61.882 L 138.695 66.125 C 138.656 66.164 138.656 66.227 138.695 66.266 L 140.746 68.317 C 140.816 68.387 140.816 68.246 140.746 68.317 L 136.644 72.418 C 136.574 72.489 136.715 72.489 136.644 72.418 L 134.594 70.367 C 134.555 70.328 134.492 70.328 134.452 70.367 L 128.906 75.914 L 128.028 76.792 C 128.009 76.811 127.998 76.836 127.998 76.863 V 78.106 V 85.949 C 127.998 86.004 128.043 86.049 128.098 86.049 H 130.998 C 131.098 86.049 130.998 85.949 130.998 86.049 V 91.849 C 130.998 91.949 131.098 91.849 130.998 91.849 H 128.098 C 128.043 91.849 127.998 91.894 127.998 91.949 V 97.949 C 127.998 98.004 128.043 98.049 128.098 98.049 H 130.998 C 131.098 98.049 130.998 97.949 130.998 98.049 V 103.849 C 130.998 103.949 131.098 103.849 130.998 103.849 H 128.098 C 128.043 103.849 127.998 103.894 127.998 103.949 V 109.949 C 127.998 110.004 128.043 110.049 128.098 110.049 H 130.998 C 131.098 110.049 130.998 109.949 130.998 110.049 V 115.849 C 130.998 115.949 131.098 115.849 130.998 115.849 H 128.098 C 128.043 115.849 127.998 115.894 127.998 115.949 V 123.793 V 125.035 C 127.998 125.062 128.009 125.087 128.028 125.106 L 128.906 125.985 L 134.452 131.531 C 134.492 131.570 134.555 131.570 134.594 131.531 L 136.644 129.480 C 136.715 129.410 136.574 129.410 136.644 129.480 L 140.746 133.582 C 140.816 133.652 140.816 133.511 140.746 133.582 L 138.695 135.632 C 138.656 135.671 138.656 135.734 138.695 135.774 L 142.938 140.016 C 142.977 140.055 143.040 140.055 143.079 140.016 L 145.130 137.966 C 145.200 137.895 145.059 137.895 145.130 137.966 L 149.231 142.067 C 149.302 142.138 149.302 141.996 149.231 142.067 L 147.180 144.117 C 147.141 144.156 147.141 144.220 147.180 144.259 L 151.423 148.501 C 151.462 148.541 151.525 148.541 151.564 148.501 L 153.615 146.451 C 153.686 146.380 153.544 146.380 153.615 146.451 L 157.716 150.552 C 157.787 150.623 157.787 150.481 157.716 150.552 L 155.666 152.603 C 155.627 152.642 155.627 152.705 155.666 152.744 L 161.212 158.290 L 162.091 159.169 C 162.109 159.188 162.135 159.198 162.161 159.198 H 163.404 Z" stroke="rgb(0,0,0)" stroke-width="0.20" />
</g>
<g id="p-3" style="fill:none;stroke-linecap:round;stroke-linejoin:round;">
  <path d="M 11.343 38.200 H 19.086 C 19.186 38.200 19.086 38.100 19.086 38.200 V 41.100 C 19.086 41.155 19.131 41.200 19.186 41.200 H 25.186 C 25.241 41.200 25.286 41.155 25.286 41.100 V 38.200 C 25.286 38.100 25.186 38.200 25.286 38.200 H 31.086 C 31.186 38.200 31.086 38.100 31.086 38.200 V 41.100 C 31.086 41.155 31.131 41.200 31.186 41.200 H 37.186 C 37.241 41.200 37.286 41.155 37.286 41.100 V 38.200 C 37.286 38.100 37.186 38.200 37.286 38.200 H 43.086 C 43.186 38.200 43.086 38.100 43.086 38.200 V 41.100 C 43.086 41.155 43.131 41.200 43.186 41.200 H 49.186 C 49.241 41.200 49.286 41.155 49.286 41.100 V 38.200 C 49.286 38.100 49.186 38.200 49.286 38.200 H 57.030 C 57.085 38.200 57.130 38.155 57.130 38.100 C 57.130 38.155 57.085 38.200 57.030 38.200 H 58.272 C 58.328 38.200 58.372 38.155 58.372 38.100 V 34.600 C 58.372 34.545 58.328 34.500 58.272 34.500 H 56.251 C 56.151 34.500 56.251 34.600 56.251 34.500 V 28.700 C 56.251 28.600 56.151 28.700 56.251 28.700 H 58.272 C 58.328 28.700 58.372 28.655 58.372 28.600 V 22.600 C 58.372 22.545 58.328 22.500 58.272 22.500 H 56.251 C 56.151 22.500 56.251 22.600 56.251 22.500 V 16.700 C 56.251 16.600 56.151 16.700 56.251 16.700 H 58.272 C 58.328 16.700 58.372 16.655 58.372 16.600 V 13.100 C 58.372 13.045 58.328 13.000 58.272 13.000 H 57.030 C 57.085 13.000 57.130 13.045 57.130 13.100 C 57.130 13.045 57.085 13.000 57.030 13.000 H 49.286 C 49.186 13.000 49.286 13.100 49.286 13.000 V 10.100 C 49.286 10.045 49.241 10.000 49.186 10.000 H 43.186 C 43.131 10.000 43.086 10.045 43.086 10.100 V 13.000 C 43.086 13.100 43.186 13.000 43.086 13.000 H 37.286 C 37.186 13.000 37.286 13.100 37.286 13.000 V 10.100 C 37.286 10.045 37.241 10.000 37.186 10.000 H 31.186 C 31.131 10.000 31.086 10.045 31.086 10.100 V 13.000 C 31.086 13.100 31.186 13.000 31.086 13.000 H 25.286 C 25.186 13.000 25.286 13.100 25.286 13.000 V 10.100 C 25.286 10.045 25.241 10.000 25.186 10.000 H 19.186 C 19.131 10.000 19.086 10.045 19.086 10.100 V 13.000 C 19.086 13.100 19.186 13.000 19.086 13.000 H 11.343 C 11.287 13.000 11.243 13.045 11.243 13.100 C 11.243 13.045 11.287 13.000 11.343 13.000 H 10.100 C 10.045 13.000 10.000 13.045 10.000 13.100 V 16.600 C 10.000 16.655 10.045 16.700 10.100 16.700 H 12.121 C 12.221 16.700 12.121 16.600 12.121 16.700 V 22.500 C 12.121 22.600 12.221 22.500 12.121 22.500 H 10.100 C 10.045 22.500 10.000 22.545 10.000 22.600 V 28.600 C 10.000 28.655 10.045 28.700 10.100 28.700 H 12.121 C 12.221 28.700 12.121 28.600 12.121 28.700 V 34.500 C 12.121 34.600 12.221 34.500 12.121 34.500 H 10.100 C 10.045 34.500 10.000 34.545 10.000 34.600 V 38.100 C 10.000 38.155 10.045 38.200 10.100 38.200 H 11.343 C 11.287 38.200 11.243 38.155 11.243 38.100 C 11.243 38.155 11.287 38.200 11.343 38.200 Z" stroke="rgb(0,0,0)" stroke-width="0.20" />
</g>
<g id="p-4" style="fill:none;stroke-linecap:round;stroke-linejoin:round;">
  <path d="M 62.094 38.200 H 69.837 C 69.937 38.200 69.837 38.100 69.837 38.200 V 41.100 C 69.837 41.155 69.882 41.200 69.937 41.200 H 75.937 C 75.992 41.200 76.037 41.155 76.037 41.100 V 38.200 C 76.037 38.100 75.937 38.200 76.037 38.200 H 81.837 C 81.937 38.200 81.837 38.100 81.837 38.200 V 41.100 C 81.837 41.155 81.882 41.200 81.937 41.200 H 87.937 C 87.992 41.200 88.037 41.155 88.037 41.100 V 38.200 C 88.037 38.100 87.937 38.200 88.037 38.200 H 93.837 C 93.937 38.200 93.837 38.100 93.837 38.200 V 41.100 C 93.837 41.155 93.882 41.200 93.937 41.200 H 99.937 C 99.992 41.200 100.037 41.155 100.037 41.100 V 38.200 C 100.037 38.100 99.937 38.200 100.037 38.200 H 107.781 C 107.836 38.200 107.881 38.155 107.881 38.100 V 34.700 C 107.881 34.600 107.781 34.700 107.881 34.700 H 109.902 C 109.957 34.700 110.002 34.655 110.002 34.600 V 28.600 C 110.002 28.545 109.957 28.500 109.902 28.500 H 107.881 C 107.781 28.500 107.881 28.600 107.881 28.500 V 22.700 C 107.881 22.600 107.781 22.700 107.881 22.700 H 109.902 C 109.957 22.700 110.002 22.655 110.002 22.600 V 16.600 C 110.002 16.545 109.957 16.500 109.902 16.500 H 107.881 C 107.781 16.500 107.881 16.600 107.881 16.500 V 13.100 C 107.881 13.045 107.836 13.000 107.781 13.000 H 100.037 C 99.937 13.000 100.037 13.100 100.037 13.000 V 10.100 C 100.037 10.045 99.992 10.000 99.937 10.000 H 93.937 C 93.882 10.000 93.837 10.045 93.837 10.100 V 13.000 C 93.837 13.100 93.937 13.000 93.837 13.000 H 88.037 C 87.937 13.000 88.037 13.100 88.037 13.000 V 10.100 C 88.037 10.045 87.992 10.000 87.937 10.000 H 81.937 C 81.882 10.000 81.837 10.045 81.837 10.100 V 13.000 C 81.837 13.100 81.937 13.000 81.837 13.000 H 76.037 C 75.937 13.000 76.037 13.100 76.037 13.000 V 10.100 C 76.037 10.045 75.992 10.000 75.937 10.000 H 69.937 C 69.882 10.000 69.837 10.045 69.837 10.100 V 13.000 C 69.837 13.100 69.937 13.000 69.837 13.000 H 62.094 C 62.038 13.000 61.994 13.045 61.994 13.100 V 16.500 C 61.994 16.600 62.094 16.500 61.994 16.500 H 59.972 C 59.917 16.500 59.872 16.545 59.872 16.600 V 22.600 C 59.872 22.655 59.917 22.700 59.972 22.700 H 61.994 C 62.094 22.700 61.994 22.600 61.994 22.700 V 28.500 C 61.994 28.600 62.094 28.500 61.994 28.500 H 59.972 C 59.917 28.500 59.872 28.545 59.872 28.600 V 34.600 C 59.872 34.655 59.917 34.700 59.972 34.700 H 61.994 C 62.094 34.700 61.994 34.600 61.994 34.700 V 38.100 C 61.994 38.155 62.038 38.200 62.094 38.200 Z" stroke="rgb(0,0,0)" stroke-width="0.20" />
</g>
<g id="p-5" style="fill:none;stroke-linecap:round;stroke-linejoin:round;">
  <path d="M 112.845 38.200 H 120.588 C 120.688 38.200 120.588 38.100 120.588 38.200 V 41.100 C 120.588 41.155 120.633 41.200 120.688 41.200 H 126.688 C 126.743 41.200 126.788 41.155 126.788 41.100 V 38.200 C 126.788 38.100 126.688 38.200 126.788 38.200 H 132.588 C 132.688 38.200 132.588 38.100 132.588 38.200 V 41.100 C 132.588 41.155 132.633 41.200 132.688 41.200 H 138.688 C 138.743 41.200 138.788 41.155 138.788 41.100 V 38.200 C 138.788 38.100 138.688 38.200 138.788 38.200 H 144.588 C 144.688 38.200 144.588 38.100 144.588 38.200 V 41.100 C 144.588 41.155 144.633 41.200 144.688 41.200 H 150.688 C 150.743 41.200 150.788 41.155 150.788 41.100 V 38.200 C 150.788 38.100 150.688 38.200 150.788 38.200 H 158.532 C 158.587 38.200 158.632 38.155 158.632 38.100 C 158.632 38.155 158.587 38.200 158.532 38.200 H 159.774 C 159.830 38.200 159.874 38.155 159.874 38.100 V 34.600 C 159.874 34.545 159.830 34.500 159.774 34.500 H 157.753 C 157.653 34.500 157.753 34.600 157.753 34.500 V 28.700 C 157.753 28.600 157.653 28.700 157.753 28.700 H 159.774 C 159.830 28.700 159.874 28.655 159.874 28.600 V 22.600 C 159.874 22.545 159.830 22.500 159.774 22.500 H 157.753 C 157.653 22.500 157.753 22.600 157.753 22.500 V 16.700 C 157.753 16.600 157.653 16.700 157.753 16.700 H 159.774 C 159.830 16.700 159.874 16.655 159.874 16.600 V 13.100 C 159.874 13.045 159.830 13.000 159.774 13.000 H 158.532 C 158.587 13.000 158.632 13.045 158.632 13.100 C 158.632 13.045 158.587 13.000 158.532 13.000 H 150.788 C 150.688 13.000 150.788 13.100 150.788 13.000 V 10.100 C 150.788 10.045 150.743 10.000 150.688 10.000 H 144.688 C 144.633 10.000 144.588 10.045 144.588 10.100 V 13.000 C 144.588 13.100 144.688 13.000 144.588 13.000 H 138.788 C 138.688 13.000 138.788 13.100 138.788 13.000 V 10.100 C 138.788 10.045 138.743 10.000 138.688 10.000 H 132.688 C 132.633 10.000 132.588 10.045 132.588 10.100 V 13.000 C 132.588 13.100 132.688 13.000 132.588 13.000 H 126.788 C 126.688 13.000 126.788 13.100 126.788 13.000 V 10.100 C 126.788 10.045 126.743 10.000 126.688 10.000 H 120.688 C 120.633 10.000 120.588 10.045 120.588 10.100 V 13.000 C 120.588 13.100 120.688 13.000 120.588 13.000 H 112.845 C 112.789 13.000 112.745 13.045 112.745 13.100 C 112.745 13.045 112.789 13.000 112.845 13.000 H 111.602 C 111.547 13.000 111.502 13.045 111.502 13.100 V 16.600 C 111.502 16.655 111.547 16.700 111.602 16.700 H 113.623 C 113.723 16.700 113.623 16.600 113.623 16.700 V 22.500 C 113.623 22.600 113.723 22.500 113.623 22.500 H 111.602 C 111.547 22.500 111.502 22.545 111.502 22.600 V 28.600 C 111.502 28.655 111.547 28.700 111.602 28.700 H 113.623 C 113.723 28.700 113.623 28.600 113.623 28.700 V 34.500 C 113.623 34.600 113.723 34.500 113.623 34.500 H 111.602 C 111.547 34.500 111.502 34.545 111.502 34.600 V 38.100 C 111.502 38.155 111.547 38.200 111.602 38.200 H 112.845 C 112.789 38.200 112.745 38.155 112.745 38.100 C 112.745 38.155 112.789 38.200 112.845 38.200 Z" stroke="rgb(0,0,0)" stroke-width="0.20" />
</g>
<g id="p-6" style="fill:none;stroke-linecap:round;stroke-linejoin:round;">
  <path d="M 163.596 38.200 H 171.339 C 171.439 38.200 171.339 38.100 171.339 38.200 V 41.100 C 171.339 41.155 171.384 41.200 171.439 41.200 H 177.439 C 177.494 41.200 177.539 41.155 177.539 41.100 V 38.200 C 177.539 38.100 177.439 38.200 177.539 38.200 H 183.339 C 183.439 38.200 183.339 38.100 183.339 38.200 V 41.100 C 183.339 41.155 183.384 41.200 183.439 41.200 H 189.439 C 189.494 41.200 189.539 41.155 189.539 41.100 V 38.200 C 189.539 38.100 189.439 38.200 189.539 38.200 H 195.339 C 195.439 38.200 195.339 38.100 195.339 38.200 V 41.100 C 195.339 41.155 195.384 41.200 195.439 41.200 H 201.439 C 201.494 41.200 201.539 41.155 201.539 41.100 V 38.200 C 201.539 38.100 201.439 38.200 201.539 38.200 H 209.283 C 209.338 38.200 209.383 38.155 209.383 38.100 V 34.700 C 209.383 34.600 209.283 34.700 209.383 34.700 H 211.404 C 211.459 34.700 211.504 34.655 211.504 34.600 V 28.600 C 211.504 28.545 211.459 28.500 211.404 28.500 H 209.383 C 209.283 28.500 209.383 28.600 209.383 28.500 V 22.700 C 209.383 22.600 209.283 22.700 209.383 22.700 H 211.404 C 211.459 22.700 211.504 22.655 211.504 22.600 V 16.600 C 211.504 16.545 211.459 16.500 211.404 16.500 H 209.383 C 209.283 16.500 209.383 16.600 209.383 16.500 V 13.100 C 209.383 13.045 209.338 13.000 209.283 13.000 H 201.539 C 201.439 13.000 201.539 13.100 201.539 13.000 V 10.100 C 201.539 10.045 201.494 10.000 201.439 10.000 H 195.439 C 195.384 10.000 195.339 10.045 195.339 10.100 V 13.000 C 195.339 13.100 195.439 13.000 195.339 13.000 H 189.539 C 189.439 13.000 189.539 13.100 189.539 13.000 V 10.100 C 189.539 10.045 189.494 10.000 189.439 10.000 H 183.439 C 183.384 10.000 183.339 10.045 183.339 10.100 V 13.000 C 183.339 13.100 183.439 13.000 183.339 13.000 H 177.539 C 177.439 13.000 177.539 13.100 177.539 13.000 V 10.100 C 177.539 10.045 177.494 10.000 177.439 10.000 H 171.439 C 171.384 10.000 171.339 10.045 171.339 10.100 V 13.000 C 171.339 13.100 171.439 13.000 171.339 13.000 H 163.596 C 163.540 13.000 163.496 13.045 163.496 13.100 V 16.500 C 163.496 16.600 163.596 16.500 163.496 16.500 H 161.474 C 161.419 16.500 161.374 16.545 161.374 16.600 V 22.600 C 161.374 22.655 161.419 22.700 161.474 22.700 H 163.496 C 163.596 22.700 163.496 22.600 163.496 22.700 V 28.500 C 163.496 28.600 163.596 28.500 163.496 28.500 H 161.474 C 161.419 28.500 161.374 28.545 161.374 28.600 V 34.600 C 161.374 34.655 161.419 34.700 161.474 34.700 H 163.496 C 163.596 34.700 163.496 34.600 163.496 34.700 V 38.100 C 163.496 38.155 163.540 38.200 163.596 38.200 Z" stroke="rgb(0,0,0)" stroke-width="0.20" />
</g>
<g id="p-7" style="fill:none;stroke-linecap:round;stroke-linejoin:round;">
  <path d="M 214.347 38.200 H 222.090 C 222.190 38.200 222.090 38.100 222.090 38.200 V 41.100 C 222.090 41.155 222.135 41.200 222.190 41.200 H 228.190 C 228.245 41.200 228.290 41.155 228.290 41.100 V 38.200 C 228.290 38.100 228.190 38.200 228.290 38.200 H 234.090 C 234.190 38.200 234.090 38.100 234.090 38.200 V 41.100 C 234.090 41.155 234.135 41.200 234.190 41.200 H 240.190 C 240.245 41.200 240.290 41.155 240.290 41.100 V 38.200 C 240.290 38.100 240.190 38.200 240.290 38.200 H 246.090 C 246.190 38.200 246.090 38.100 246.090 38.200 V 41.100 C 246.090 41.155 246.135 41.200 246.190 41.200 H 252.190 C 252.245 41.200 252.290 41.155 252.290 41.100 V 38.200 C 252.290 38.100 252.190 38.200 252.290 38.200 H 260.034 C 260.089 38.200 260.134 38.155 260.134 38.100 C 260.134 38.155 260.089 38.200 260.034 38.200 H 261.276 C 261.332 38.200 261.376 38.155 261.376 38.100 V 34.600 C 261.376 34.545 261.332 34.500 261.276 34.500 H 259.255 C 259.155 34.500 259.255 34.600 259.255 34.500 V 28.700 C 259.255 28.600 259.155 28.700 259.255 28.700 H 261.276 C 261.332 28.700 261.376 28.655 261.376 28.600 V 22.600 C 261.376 22.545 261.332 22.500 261.276 22.500 H 259.255 C 259.155 22.500 259.255 22.600 259.255 22.500 V 16.700 C 259.255 16.600 259.155 16.700 259.255 16.700 H 261.276 C 261.332 16.700 261.376 16.655 261.376 16.600 V 13.100 C 261.376 13.045 261.332 13.000 261.276 13.000 H 260.034 C 260.089 13.000 260.134 13.045 260.134 13.100 C 260.134 13.045 260.089 13.000 260.034 13.000 H 252.290 C 252.190 13.000 252.290 13.100 252.290 13.000 V 10.100 C 252.290 10.045 252.245 10.000 252.190 10.000 H 246.190 C 246.135 10.000 246.090 10.045 246.090 10.100 V 13.000 C 246.090 13.100 246.190 13.000 246.090 13.000 H 240.290 C 240.190 13.000 240.290 13.100 240.290 13.000 V 10.100 C 240.290 10.045 240.245 10.000 240.190 10.000 H 234.190 C 234.135 10.000 234.090 10.045 234.090 10.100 V 13.000 C 234.090 13.100 234.190 13.000 234.090 13.000 H 228.290 C 228.190 13.000 228.290 13.100 228.290 13.000 V 10.100 C 228.290 10.045 228.245 10.000 228.190 10.000 H 222.190 C 222.135 10.000 222.090 10.045 222.090 10.100 V 13.000 C 222.090 13.100 222.190 13.000 222.090 13.000 H 214.347 C 214.291 13.000 214.247 13.045 214.247 13.100 C 214.247 13.045 214.291 13.000 214.347 13.000 H 213.104 C 213.049 13.000 213.004 13.045 213.004 13.100 V 16.600 C 213.004 16.655 213.049 16.700 213.104 16.700 H 215.125 C 215.225 16.700 215.125 16.600 215.125 16.700 V 22.500 C 215.125 22.600 215.225 22.500 215.125 22.500 H 213.104 C 213.049 22.500 213.004 22.545 213.004 22.600 V 28.600 C 213.004 28.655 213.049 28.700 213.104 28.700 H 215.125 C 215.225 28.700 215.125 28.600 215.125 28.700 V 34.500 C 215.125 34.600 215.225 34.500 215.125 34.500 H 213.104 C 213.049 34.500 213.004 34.545 213.004 34.600 V 38.100 C 213.004 38.155 213.049 38.200 213.104 38.200 H 214.347 C 214.291 38.200 214.247 38.155 214.247 38.100 C 214.247 38.155 214.291 38.200 214.347 38.200 Z" stroke="rgb(0,0,0)" stroke-width="0.20" />
</g>
<g id="p-8" style="fill:none;stroke-linecap:round;stroke-linejoin:round;">
  <path d="M 265.098 38.200 H 272.841 C 272.941 38.200 272.841 38.100 272.841 38.200 V 41.100 C 272.841 41.155 272.886 41.200 272.941 41.200 H 278.941 C 278.996 41.200 279.041 41.155 279.041 41.100 V 38.200 C 279.041 38.100 278.941 38.200 279.041 38.200 H 284.841 C 284.941 38.200 284.841 38.100 284.841 38.200 V 41.100 C 284.841 41.155 284.886 41.200 284.941 41.200 H 290.941 C 290.996 41.200 291.041 41.155 291.041 41.100 V 38.200 C 291.041 38.100 290.941 38.200 291.041 38.200 H 296.841 C 296.941 38.200 296.841 38.100 296.841 38.200 V 41.100 C 296.841 41.155 296.886 41.200 296.941 41.200 H 302.941 C 302.996 41.200 303.041 41.155 303.041 41.100 V 38.200 C 303.041 38.100 302.941 38.200 303.041 38.200 H 310.785 C 310.840 38.200 310.885 38.155 310.885 38.100 V 34.700 C 310.885 34.600 310.785 34.700 310.885 34.700 H 312.906 C 312.961 34.700 313.006 34.655 313.006 34.600 V 28.600 C 313.006 28.545 312.961 28.500 312.906 28.500 H 310.885 C 310.785 28.500 310.885 28.600 310.885 28.500 V 22.700 C 310.885 22.600 310.785 22.700 310.885 22.700 H 312.906 C 312.961 22.700 313.006 22.655 313.006 22.600 V 16.600 C 313.006 16.545 312.961 16.500 312.906 16.500 H 310.885 C 310.785 16.500 310.885 16.600 310.885 16.500 V 13.100 C 310.885 13.045 310.840 13.000 310.785 13.000 H 303.041 C 302.941 13.000 303.041 13.100 303.041 13.000 V 10.100 C 303.041 10.045 302.996 10.000 302.941 10.000 H 296.941 C 296.886 10.000 296.841 10.045 296.841 10.100 V 13.000 C 296.841 13.100 296.941 13.000 296.841 13.000 H 291.041 C 290.941 13.000 291.041 13.100 291.041 13.000 V 10.100 C 291.041 10.045 290.996 10.000 290.941 10.000 H 284.941 C 284.886 10.000 284.841 10.045 284.841 10.100 V 13.000 C 284.841 13.100 284.941 13.000 284.841 13.000 H 279.041 C 278.941 13.000 279.041 13.100 279.041 13.000 V 10.100 C 279.041 10.045 278.996 10.000 278.941 10.000 H 272.941 C 272.886 10.000 272.841 10.045 272.841 10.100 V 13.000 C 272.841 13.100 272.941 13.000 272.841 13.000 H 265.098 C 265.042 13.000 264.998 13.045 264.998 13.100 V 16.500 C 264.998 16.600 265.098 16.500 264.998 16.500 H 262.976 C 262.921 16.500 262.876 16.545 262.876 16.600 V 22.600 C 262.876 22.655 262.921 22.700 262.976 22.700 H 264.998 C 265.098 22.700 264.998 22.600 264.998 22.700 V 28.500 C 264.998 28.600 265.098 28.500 264.998 28.500 H 262.976 C 262.921 28.500 262.876 28.545 262.876 28.600 V 34.600 C 262.876 34.655 262.921 34.700 262.976 34.700 H 264.998 C 265.098 34.700 264.998 34.600 264.998 34.700 V 38.100 C 264.998 38.155 265.042 38.200 265.098 38.200 Z" stroke="rgb(0,0,0)" stroke-width="0.20" />
</g>
<g id="p-9" style="fill:none;stroke-linecap:round;stroke-linejoin:round;">
  <path d="M 315.849 38.200 H 323.592 C 323.692 38.200 323.592 38.100 323.592 38.200 V 41.100 C 323.592 41.155 323.637 41.200 323.692 41.200 H 329.692 C 329.747 41.200 329.792 41.155 329.792 41.100 V 38.200 C 329.792 38.100 329.692 38.200 329.792 38.200 H 335.592 C 335.692 38.200 335.592 38.100 335.592 38.200 V 41.100 C 335.592 41.155 335.637 41.200 335.692 41.200 H 341.692 C 341.747 41.200 341.792 41.155 341.792 41.100 V 38.200 C 341.792 38.100 341.692 38.200 341.792 38.200 H 347.592 C 347.692 38.200 347.592 38.100 347.592 38.200 V 41.100 C 347.592 41.155 347.637 41.200 347.692 41.200 H 353.692 C 353.747 41.200 353.792 41.155 353.792 41.100 V 38.200 C 353.792 38.100 353.692 38.200 353.792 38.200 H 361.536 C 361.591 38.200 361.636 38.155 361.636 38.100 C 361.636 38.155 361.591 38.200 361.536 38.200 H 362.778 C 362.834 38.200 362.878 38.155 362.878 38.100 V 34.600 C 362.878 34.545 362.834 34.500 362.778 34.500 H 360.757 C 360.657 34.500 360.757 34.600 360.757 34.500 V 28.700 C 360.757 28.600 360.657 28.700 360.757 28.700 H 362.778 C 362.834 28.700 362.878 28.655 362.878 28.600 V 22.600 C 362.878 22.545 362.834 22.500 362.778 22.500 H 360.757 C 360.657 22.500 360.757 22.600 360.757 22.500 V 16.700 C 360.757 16.600 360.657 16.700 360.757 16.700 H 362.778 C 362.834 16.700 362.878 16.655 362.878 16.600 V 13.100 C 362.878 13.045 362.834 13.000 362.778 13.000 H 361.536 C 361.591 13.000 361.636 13.045 361.636 13.100 C 361.636 13.045 361.591 13.000 361.536 13.000 H 353.792 C 353.692 13.000 353.792 13.100 353.792 13.000 V 10.100 C 353.792 10.045 353.747 10.000 353.692 10.000 H 347.692 C 347.637 10.000 347.592 10.045 347.592 10.100 V 13.000 C 347.592 13.100 347.692 13.000 347.592 13.000 H 341.792 C 341.692 13.000 341.792 13.100 341.792 13.000 V 10.100 C 341.792 10.045 341.747 10.000 341.692 10.000 H 335.692 C 335.637 10.000 335.592 10.045 335.592 10.100 V 13.000 C 335.592 13.100 335.692 13.000 335.592 13.000 H 329.792 C 329.692 13.000 329.792 13.100 329.792 13.000 V 10.100 C 329.792 10.045 329.747 10.000 329.692 10.000 H 323.692 C 323.637 10.000 323.592 10.045 323.592 10.100 V 13.000 C 323.592 13.100 323.692 13.000 323.592 13.000 H 315.849 C 315.793 13.000 315.749 13.045 315.749 13.100 C 315.749 13.045 315.793 13.000 315.849 13.000 H 314.606 C 314.551 13.000 314.506 13.045 314.506 13.100 V 16.600 C 314.506 16.655 314.551 16.700 314.606 16.700 H 316.627 C 316.727 16.700 316.627 16.600 316.627 16.700 V 22.500 C 316.627 22.600 316.727 22.500 316.627 22.500 H 314.606 C 314.551 22.500 314.506 22.545 314.506 22.600 V 28.600 C 314.506 28.655 314.551 28.700 314.606 28.700 H 316.627 C 316.727 28.700 316.627 28.600 316.627 28.700 V 34.500 C 316.627 34.600 316.727 34.500 316.627 34.500 H 314.606 C 314.551 34.500 314.506 34.545 314.506 34.600 V 38.100 C 314.506 38.155 314.551 38.200 314.606 38.200 H 315.849 C 315.793 38.200 315.749 38.155 315.749 38.100 C 315.749 38.155 315.793 38.200 315.849 38.200 Z" stroke="rgb(0,0,0)" stroke-width="0.20" />
</g>
<g id="p-10" style="fill:none;stroke-linecap:round;stroke-linejoin:round;">
  <path d="M 366.600 38.200 H 374.343 C 374.443 38.200 374.343 38.100 374.343 38.200 V 41.100 C 374.343 41.155 374.388 41.200 374.443 41.200 H 380.443 C 380.498 41.200 380.543 41.155 380.543 41.100 V 38.200 C 380.543 38.100 380.443 38.200 380.543 38.200 H 386.343 C 386.443 38.200 386.343 38.100 386.343 38.200 V 41.100 C 386.343 41.155 386.388 41.200 386.443 41.200 H 392.443 C 392.498 41.200 392.543 41.155 392.543 41.100 V 38.200 C 392.543 38.100 392.443 38.200 392.543 38.200 H 398.343 C 398.443 38.200 398.343 38.100 398.343 38.200 V 41.100 C 398.343 41.155 398.388 41.200 398.443 41.200 H 404.443 C 404.498 41.200 404.543 41.155 404.543 41.100 V 38.200 C 404.543 38.100 404.443 38.200 404.543 38.200 H 412.287 C 412.342 38.200 412.387 38.155 412.387 38.100 V 34.700 C 412.387 34.600 412.287 34.700 412.387 34.700 H 414.408 C 414.463 34.700 414.508 34.655 414.508 34.600 V 28.600 C 414.508 28.545 414.463 28.500 414.408 28.500 H 412.387 C 412.287 28.500 412.387 28.600 412.387 28.500 V 22.700 C 412.387 22.600 412.287 22.700 412.387 22.700 H 414.408 C 414.463 22.700 414.508 22.655 414.508 22.600 V 16.600 C 414.508 16.545 414.463 16.500 414.408 16.500 H 412.387 C 412.287 16.500 412.387 16.600 412.387 16.500 V 13.100 C 412.387 13.045 412.342 13.000 412.287 13.000 H 404.543 C 404.443 13.000 404.543 13.100 404.543 13.000 V 10.100 C 404.543 10.045 404.498 10.000 404.443 10.000 H 398.443 C 398.388 10.000 398.343 10.045 398.343 10.100 V 13.000 C 398.343 13.100 398.443 13.000 398.343 13.000 H 392.543 C 392.443 13.000 392.543 13.100 392.543 13.000 V 10.100 C 392.543 10.045 392.498 10.000 392.443 10.000 H 386.443 C 386.388 10.000 386.343 10.045 386.343 10.100 V 13.000 C 386.343 13.100 386.443 13.000 386.343 13.000 H 380.543 C 380.443 13.000 380.543 13.100 380.543 13.000 V 10.100 C 380.543 10.045 380.498 10.000 380.443 10.000 H 374.443 C 374.388 10.000 374.343 10.045 374.343 10.100 V 13.000 C 374.343 13.100 374.443 13.000 374.343 13.000 H 366.600 C 366.544 13.000 366.500 13.045 366.500 13.100 V 16.500 C 366.500 16.600 366.600 16.500 366.500 16.500 H 364.478 C 364.423 16.500 364.378 16.545 364.378 16.600 V 22.600 C 364.378 22.655 364.423 22.700 364.478 22.700 H 366.500 C 366.600 22.700 366.500 22.600 366.500 22.700 V 28.500 C 366.500 28.600 366.600 28.500 366.500 28.500 H 364.478 C 364.423 28.500 364.378 28.545 364.378 28.600 V 34.600 C 364.378 34.655 364.423 34.700 364.478 34.700 H 366.500 C 366.600 34.700 366.500 34.600 366.500 34.700 V 38.100 C 366.500 38.155 366.544 38.200 366.600 38.200 Z" stroke="rgb(0,0,0)" stroke-width="0.20" />
</g>
</svg>